<svg width="214" height="66" viewBox="0 0 214 66" fill="none" xmlns="http://www.w3.org/2000/svg">
<path d="M62.6334 19.8672L39.6899 2.16646C35.9487 -0.722155 30.7313 -0.722155 26.9901 2.16646L4.0466 19.8672C1.51429 21.8269 0 24.8937 0 28.1004V46.0556C0 56.6812 8.65312 65.3343 19.2787 65.3343H27.4737C29.0898 65.3343 30.4005 64.0236 30.4005 62.4075C30.4005 60.7914 29.0898 59.4807 27.4737 59.4807H19.2787C11.8853 59.4807 5.86632 53.4617 5.86632 46.0684V28.1131C5.86632 26.7133 6.52802 25.3772 7.63512 24.5246L30.5786 6.82389C32.2075 5.5641 34.4853 5.5641 36.1141 6.82389L59.0576 24.5246C60.1647 25.3772 60.8264 26.7133 60.8264 28.1131V52.9527C60.8264 56.554 57.8996 59.4807 54.2984 59.4807H42.1458V48.7407C42.1458 47.7481 42.5149 46.7937 43.1766 46.0556L53.115 35.0356C53.6621 34.4375 53.9294 33.6359 53.8658 32.8342C53.8021 32.0325 53.4076 31.2817 52.7714 30.7854L39.4099 20.0963C38.1501 19.0782 36.305 19.2946 35.287 20.5543C34.2689 21.8141 34.4853 23.6593 35.7451 24.6773L46.676 33.4322L38.8246 42.149C37.183 43.9687 36.2795 46.3229 36.2795 48.7661V62.4457C36.2795 63.2219 36.5849 63.9727 37.1321 64.5199C37.6793 65.0671 38.4301 65.3725 39.2063 65.3725H54.2984C61.1318 65.3725 66.6927 59.8116 66.6927 52.9782V28.1386C66.6927 24.9446 65.1784 21.8651 62.6461 19.9054L62.6334 19.8672Z" fill="#3062FF"/>
<path d="M18.7062 31.2435H15.7031C14.5224 31.2435 13.5652 32.2007 13.5652 33.3814V36.3845C13.5652 37.5652 14.5224 38.5223 15.7031 38.5223H18.7062C19.8869 38.5223 20.844 37.5652 20.844 36.3845V33.3814C20.844 32.2007 19.8869 31.2435 18.7062 31.2435Z" fill="#0095FF"/>
<path d="M25.5906 31.2435H28.5937C29.7772 31.2435 30.7316 32.1979 30.7316 33.3814V36.3845C30.7316 37.5679 29.7772 38.5223 28.5937 38.5223H25.5906C24.4072 38.5223 23.4528 37.5679 23.4528 36.3845V33.3814C23.4528 32.1979 24.4072 31.2435 25.5906 31.2435Z" fill="#0095FF"/>
<path d="M15.7031 41.1183H18.7062C19.8897 41.1183 20.844 42.0727 20.844 43.2562V46.2593C20.844 47.4428 19.8897 48.3972 18.7062 48.3972H15.7031C14.5196 48.3972 13.5652 47.4428 13.5652 46.2593V43.2562C13.5652 42.0727 14.5196 41.1183 15.7031 41.1183Z" fill="#0095FF"/>
<path d="M25.5906 41.1183H28.5937C29.7772 41.1183 30.7316 42.0727 30.7316 43.2562V46.2593C30.7316 47.4428 29.7772 48.3972 28.5937 48.3972H25.5906C24.4072 48.3972 23.4528 47.4428 23.4528 46.2593V43.2562C23.4528 42.0727 24.4072 41.1183 25.5906 41.1183Z" fill="#0095FF"/>
<path d="M108.062 29.1439C108.062 27.515 107.655 25.988 106.943 24.6519H110.468V18.9255H101.293L102.654 13.5173L97.1061 12.1176L95.3882 18.9255H86.3406V24.6519H89.9545C89.2419 25.988 88.8347 27.5278 88.8347 29.1439C88.8347 34.4503 93.1486 38.7641 98.455 38.7641C103.761 38.7641 108.075 34.4503 108.075 29.1439H108.062ZM94.5483 29.1439C94.5483 26.9933 96.2917 25.25 98.4422 25.25C100.593 25.25 102.336 26.9933 102.336 29.1439C102.336 31.2944 100.593 33.0378 98.4422 33.0378C96.2917 33.0378 94.5483 31.2944 94.5483 29.1439Z" fill="#3062FF"/>
<path d="M99.4985 46.7429V42.7344H93.7722V46.7429C93.7722 50.6622 96.9662 53.8562 100.886 53.8562H126.921V48.1299H100.886C100.122 48.1299 99.4858 47.5064 99.4858 46.7301L99.4985 46.7429Z" fill="#3062FF"/>
<path d="M112.275 20.0708V40.5965H118.001V20.0708C118.001 19.2691 118.65 18.6201 119.452 18.6201C120.253 18.6201 120.902 19.2691 120.902 20.0708V40.5965H126.629V20.0708C126.629 16.1133 123.409 12.8938 119.452 12.8938C115.494 12.8938 112.275 16.1133 112.275 20.0708Z" fill="#3062FF"/>
<path d="M160.045 10.8323V16.5587C162.424 16.5587 164.359 18.4929 164.359 20.8725V55.4087H170.085V20.8725C170.085 15.337 165.58 10.8323 160.045 10.8323Z" fill="#3062FF"/>
<path d="M140.105 38.7641V23.7612C140.105 23.0358 140.69 22.4505 141.415 22.4505H156.736V16.7241H141.415C137.534 16.7241 134.378 19.88 134.378 23.7612V38.7641C134.378 42.6453 137.534 45.8012 141.415 45.8012H159.37V40.0748H141.415C140.69 40.0748 140.105 39.4895 140.105 38.7641Z" fill="#3062FF"/>
<path d="M198.03 31.918C202.789 30.9764 206.212 27.7314 206.212 23.7612C206.212 22.6414 205.932 21.5851 205.436 20.6307H210.271V14.9044H198.233L199.226 10.9978L193.678 9.59802L192.329 14.9171H180.418V20.6435H184.872C184.376 21.6106 184.096 22.6668 184.096 23.7739C184.096 27.7441 187.519 30.9891 192.278 31.9307V33.5723H176.83V39.2986H213.453V33.5723H198.004V31.9307L198.03 31.918ZM189.847 23.7612C189.847 22.6541 191.922 21.0507 195.167 21.0507C198.412 21.0507 200.486 22.6541 200.486 23.7612C200.486 24.8683 198.412 26.4716 195.167 26.4716C191.922 26.4716 189.847 24.8683 189.847 23.7612Z" fill="#3062FF"/>
<path d="M184.414 41.0674C182.787 41.1028 181.487 42.4315 181.487 44.0585V52.8382C181.522 54.4648 182.851 55.765 184.478 55.765H206.416L209.342 55.7014V43.9942L209.279 41.0674H184.414ZM203.616 50.0259H187.213V46.781H203.616V50.0259Z" fill="#3062FF"/>
</svg>
